<svg width="29" height="29" viewBox="0 0 29 29" fill="none" xmlns="http://www.w3.org/2000/svg">
<g clip-path="url(#clip0_24_1277)">
<g clip-path="url(#clip1_24_1277)">
<mask id="mask0_24_1277" style="mask-type:luminance" maskUnits="userSpaceOnUse" x="-1" y="-1" width="31" height="30">
<path d="M-0.333496 -0.333677H29.0002V29H-0.333496V-0.333677Z" fill="white"/>
</mask>
<g mask="url(#mask0_24_1277)">
<path d="M20.5828 17.5622L22.093 16.0519L17.7044 15.0797L14.3333 14.3332L15.0798 17.7043L16.0521 22.0928L17.5623 20.5826L18.7362 21.7565L22.4694 25.4897C20.188 27.1563 17.3756 28.1406 14.3333 28.1406C6.70772 28.1406 0.525879 21.9588 0.525879 14.3332C0.525879 6.70756 6.70772 0.525721 14.3333 0.525721C21.9589 0.525721 28.1408 6.70756 28.1408 14.3332C28.1408 17.3754 27.1565 20.1879 25.4899 22.4693L21.7567 18.7361L20.5828 17.5622Z" stroke="white" stroke-miterlimit="10" stroke-linecap="round" stroke-linejoin="round"/>
<path d="M22.9626 14.333C22.9626 15.9418 22.5226 17.4469 21.7566 18.7359L20.5827 17.562L22.0929 16.0518L17.7043 15.0795L14.3332 14.333L15.0797 17.7041L16.052 22.0927L17.5622 20.5825L18.7361 21.7564C17.4471 22.5224 15.942 22.9624 14.3332 22.9624C9.56708 22.9624 5.70386 19.0992 5.70386 14.333C5.70386 9.56688 9.56708 5.70366 14.3332 5.70366C19.0994 5.70366 22.9626 9.56688 22.9626 14.333Z" stroke="white" stroke-miterlimit="10" stroke-linecap="round" stroke-linejoin="round"/>
<path d="M17.7045 15.0798L14.3335 14.3333L15.08 17.7044C14.8399 17.7571 14.5896 17.7852 14.3335 17.7852C12.4268 17.7852 10.8816 16.24 10.8816 14.3333C10.8816 12.4266 12.4268 10.8814 14.3335 10.8814C16.2401 10.8814 17.7853 12.4266 17.7853 14.3333C17.7853 14.5894 17.7572 14.8398 17.7045 15.0798Z" stroke="white" stroke-miterlimit="10" stroke-linecap="round" stroke-linejoin="round"/>
<path d="M27.9247 24.9049L24.9048 27.9248L22.4693 25.4899L18.7362 21.7567L17.5622 20.5828L16.052 22.093L15.0798 17.7044L14.3333 14.3333L17.7043 15.0799L22.0929 16.0521L20.5827 17.5623L21.7566 18.7363L25.4898 22.4694L27.9247 24.9049Z" stroke="white" stroke-miterlimit="10" stroke-linecap="round" stroke-linejoin="round"/>
</g>
</g>
</g>
<defs>
<clipPath id="clip0_24_1277">
<rect width="29" height="29" fill="white"/>
</clipPath>
<clipPath id="clip1_24_1277">
<rect width="29.3337" height="29.3337" fill="white" transform="translate(-0.333496 -0.333496)"/>
</clipPath>
</defs>
</svg>
