<svg width="61" height="33" viewBox="0 0 61 33" fill="none" xmlns="http://www.w3.org/2000/svg">
<circle cx="44.4151" cy="16.5" r="15.8406" stroke="#4883BB" stroke-width="1.14906"/>
<g clip-path="url(#clip0_24_463)">
<path d="M44.2997 0.905659C40.1647 0.905659 36.1955 2.54964 33.274 5.47309C30.3495 8.39772 28.7062 12.364 28.7053 16.5C28.7053 20.6342 30.35 24.6034 33.274 27.5269C36.1955 30.4503 40.1647 32.0943 44.2997 32.0943C48.4346 32.0943 52.4038 30.4503 55.3253 27.5269C58.2493 24.6034 59.894 20.6342 59.894 16.5C59.894 12.3658 58.2493 8.39654 55.3253 5.47309C52.4038 2.54964 48.4346 0.905659 44.2997 0.905659Z" fill="#4680C2"/>
<path fill-rule="evenodd" clip-rule="evenodd" d="M53.5291 12.7633C53.6774 12.3327 53.5291 12.0196 52.8725 12.0196H50.6908C50.1401 12.0196 49.8859 12.2936 49.7376 12.5872C49.7376 12.5872 48.615 15.0925 47.0476 16.7171C46.5392 17.1868 46.3062 17.3434 46.0309 17.3434C45.8826 17.3434 45.692 17.1868 45.692 16.7562V12.7438C45.692 12.2349 45.5225 12 45.0565 12H41.6251C41.2862 12 41.0744 12.2349 41.0744 12.4697C41.0744 12.9591 41.8581 13.0765 41.9428 14.4466V17.4217C41.9428 18.0676 41.8157 18.1851 41.5404 18.1851C40.799 18.1851 38.9986 15.6601 37.9183 12.7829C37.7065 12.2153 37.4947 12 36.944 12H34.7411C34.1057 12 33.9998 12.274 33.9998 12.5676C33.9998 13.0961 34.7411 15.758 37.4523 19.2811C39.2528 21.6886 41.8157 22.9804 44.1245 22.9804C45.5225 22.9804 45.692 22.6868 45.692 22.1975V20.3772C45.692 19.79 45.819 19.6922 46.2639 19.6922C46.5816 19.6922 47.1535 19.8488 48.4456 21.0036C49.9283 22.3737 50.1824 23 51.0085 23H53.1902C53.8257 23 54.1222 22.7064 53.9527 22.1388C53.7621 21.5712 53.0419 20.7491 52.11 19.7705C51.6016 19.2224 50.8391 18.6157 50.6061 18.3221C50.2883 17.9306 50.3731 17.774 50.6061 17.4217C50.5849 17.4217 53.2538 13.9377 53.5291 12.7633Z" fill="white"/>
</g>
<circle cx="16.4151" cy="16.5" r="15.8406" stroke="#2AABEE" stroke-width="1.14906"/>
<g clip-path="url(#clip1_24_463)">
<path d="M16.2997 0.905659C12.1647 0.905659 8.19547 2.54964 5.27397 5.47309C2.34948 8.39772 0.706159 12.364 0.705322 16.5C0.705322 20.6342 2.35004 24.6034 5.27397 27.5269C8.19547 30.4503 12.1647 32.0943 16.2997 32.0943C20.4346 32.0943 24.4038 30.4503 27.3253 27.5269C30.2493 24.6034 31.894 20.6342 31.894 16.5C31.894 12.3658 30.2493 8.39654 27.3253 5.47309C24.4038 2.54964 20.4346 0.905659 16.2997 0.905659Z" fill="#2AABEE"/>
<path d="M7.76215 16.3353C12.3089 14.3548 15.34 13.0491 16.8556 12.4182C21.1879 10.6168 22.087 10.3039 22.6742 10.2933C22.8034 10.2913 23.0909 10.3232 23.2785 10.4749C23.4344 10.6028 23.4783 10.7758 23.5002 10.8972C23.5197 11.0186 23.5465 11.2951 23.5246 11.511C23.2907 13.9769 22.2746 19.9607 21.7581 22.7226C21.5412 23.8912 21.1099 24.283 20.6933 24.3213C19.7868 24.4046 19.0997 23.7228 18.2225 23.148C16.8507 22.2482 16.0759 21.6883 14.743 20.8104C13.2031 19.7958 14.2021 19.238 15.0793 18.3267C15.3083 18.0882 19.2995 14.4588 19.375 14.1297C19.3848 14.0885 19.3945 13.935 19.302 13.8541C19.2118 13.7729 19.0778 13.8007 18.9803 13.8226C18.8414 13.8538 16.6509 15.3031 12.4015 18.1703C11.7801 18.5977 11.2173 18.806 10.7104 18.795C10.1549 18.7831 9.08279 18.4802 8.28602 18.2215C7.31137 17.904 6.53409 17.7361 6.60232 17.1969C6.63643 16.9162 7.02385 16.6289 7.76215 16.3353Z" fill="white"/>
</g>
<defs>
<clipPath id="clip0_24_463">
<rect width="31.1887" height="31.1887" fill="white" transform="translate(28.7053 0.905659)"/>
</clipPath>
<clipPath id="clip1_24_463">
<rect width="31.1887" height="31.1887" fill="white" transform="translate(0.705322 0.905659)"/>
</clipPath>
</defs>
</svg>
