<svg width="30" height="29" viewBox="0 0 30 29" fill="none" xmlns="http://www.w3.org/2000/svg">
<path d="M7.09807 1.52175C7.76436 1.65947 8.29498 2.10713 8.62466 2.69858L9.67487 4.58268C10.0617 5.27662 10.3872 5.86061 10.5998 6.36827C10.8254 6.90679 10.9593 7.43784 10.8981 8.02497C10.8368 8.6121 10.5962 9.10409 10.2644 9.58449C9.95168 10.0374 9.51266 10.5416 8.99097 11.1408L7.44717 12.9141C7.17053 13.2319 7.03221 13.3908 7.01957 13.5893C7.00692 13.7879 7.12029 13.9575 7.34703 14.2968C9.27951 17.1881 11.884 19.7935 14.7777 21.7276C15.1169 21.9544 15.2865 22.0677 15.4851 22.0551C15.6837 22.0424 15.8426 21.9041 16.1604 21.6275L17.9338 20.0836C18.5329 19.5619 19.0372 19.1229 19.4901 18.8101C19.9705 18.4784 20.4625 18.2377 21.0496 18.1765C21.6367 18.1153 22.1678 18.2492 22.7063 18.4747C23.2139 18.6873 23.7979 19.0128 24.4917 19.3996L26.376 20.4499C26.9674 20.7796 27.4151 21.3102 27.5528 21.9765C27.692 22.6497 27.4867 23.3265 27.0334 23.8826C25.3886 25.9007 22.7534 27.1856 19.9889 26.6279C18.2896 26.2851 16.613 25.7141 14.5851 24.5511C10.5107 22.2144 6.85747 18.5592 4.52348 14.4895C3.36051 12.4616 2.78942 10.785 2.44664 9.08567C1.88897 6.32118 3.17389 3.68596 5.19194 2.04117C5.74812 1.58786 6.42483 1.38261 7.09807 1.52175Z" fill="white"/>
<path fill-rule="evenodd" clip-rule="evenodd" d="M20.8356 2.36108C21.485 2.36108 22.0114 2.88749 22.0114 3.53685V7.06416H25.5387C26.1881 7.06416 26.7145 7.59056 26.7145 8.23992C26.7145 8.88928 26.1881 9.41569 25.5387 9.41569H22.0114V12.943C22.0114 13.5924 21.485 14.1188 20.8356 14.1188C20.1863 14.1188 19.6599 13.5924 19.6599 12.943V9.41569H16.1326C15.4832 9.41569 14.9568 8.88928 14.9568 8.23992C14.9568 7.59056 15.4832 7.06415 16.1326 7.06415L19.6599 7.06416V3.53685C19.6599 2.88749 20.1863 2.36108 20.8356 2.36108Z" fill="white"/>
</svg>
