<svg width="33" height="33" viewBox="0 0 33 33" fill="none" xmlns="http://www.w3.org/2000/svg">
<circle cx="16.4151" cy="16.5" r="15.8406" stroke="#2AABEE" stroke-width="1.14906"/>
<g clip-path="url(#clip0_24_1340)">
<path d="M16.2997 0.905762C12.1647 0.905762 8.19547 2.54975 5.27397 5.47319C2.34948 8.39782 0.706159 12.3641 0.705322 16.5001C0.705322 20.6343 2.35004 24.6035 5.27397 27.527C8.19547 30.4504 12.1647 32.0944 16.2997 32.0944C20.4346 32.0944 24.4038 30.4504 27.3253 27.527C30.2493 24.6035 31.894 20.6343 31.894 16.5001C31.894 12.3659 30.2493 8.39664 27.3253 5.47319C24.4038 2.54975 20.4346 0.905762 16.2997 0.905762Z" fill="#2AABEE"/>
<path d="M7.76215 16.3355C12.3089 14.355 15.34 13.0493 16.8556 12.4184C21.1879 10.617 22.087 10.3041 22.6742 10.2935C22.8034 10.2915 23.0909 10.3234 23.2785 10.4751C23.4344 10.603 23.4783 10.776 23.5002 10.8975C23.5197 11.0188 23.5465 11.2954 23.5246 11.5112C23.2907 13.9771 22.2746 19.9609 21.7581 22.7228C21.5412 23.8914 21.1099 24.2832 20.6933 24.3215C19.7868 24.4048 19.0997 23.7231 18.2225 23.1483C16.8507 22.2484 16.0759 21.6885 14.743 20.8106C13.2031 19.796 14.2021 19.2382 15.0793 18.3269C15.3083 18.0884 19.2995 14.4591 19.375 14.1299C19.3848 14.0887 19.3945 13.9352 19.302 13.8543C19.2118 13.7732 19.0778 13.8009 18.9803 13.8229C18.8414 13.8541 16.6509 15.3033 12.4015 18.1705C11.7801 18.5979 11.2173 18.8062 10.7104 18.7953C10.1549 18.7833 9.08279 18.4805 8.28602 18.2217C7.31137 17.9042 6.53409 17.7363 6.60232 17.1971C6.63643 16.9164 7.02385 16.6291 7.76215 16.3355Z" fill="white"/>
</g>
<defs>
<clipPath id="clip0_24_1340">
<rect width="31.1887" height="31.1887" fill="white" transform="translate(0.705322 0.905762)"/>
</clipPath>
</defs>
</svg>
