<svg width="18" height="18" viewBox="0 0 18 18" fill="none" xmlns="http://www.w3.org/2000/svg">
<path d="M11.1375 5.9625C11.1375 4.78138 10.1811 3.825 8.99995 3.825C7.81884 3.825 6.86245 4.78138 6.86245 5.9625C6.86245 7.14361 7.81884 8.1 8.99995 8.1C10.1811 8.1 11.1375 7.14361 11.1375 5.9625ZM12.4875 5.9625C12.4875 7.8892 10.9266 9.45 8.99995 9.45C7.07325 9.45 5.51245 7.8892 5.51245 5.9625C5.51245 4.0358 7.07325 2.475 8.99995 2.475C10.9266 2.475 12.4875 4.0358 12.4875 5.9625ZM4.42495 13.8214C4.42495 14.3981 4.35688 14.325 4.67642 14.325H13.3235C13.643 14.325 13.575 14.3981 13.575 13.8214C13.575 12.402 11.4913 11.55 8.99995 11.55C6.5086 11.55 4.42495 12.402 4.42495 13.8214ZM3.07495 13.8214C3.07495 11.3263 5.82954 10.2 8.99995 10.2C12.1704 10.2 14.925 11.3263 14.925 13.8214C14.925 15.1231 14.4108 15.675 13.3235 15.675H4.67642C3.5891 15.675 3.07495 15.1231 3.07495 13.8214Z" fill="#56AF41"/>
</svg>
