<svg width="29" height="29" viewBox="0 0 29 29" fill="none" xmlns="http://www.w3.org/2000/svg">
<mask id="mask0_24_610" style="mask-type:luminance" maskUnits="userSpaceOnUse" x="0" y="0" width="29" height="29">
<path d="M0 3.8147e-06H29V29H0V3.8147e-06Z" fill="white"/>
</mask>
<g mask="url(#mask0_24_610)">
<path d="M28.1504 19.0313H0.849609V25.8281C0.849609 27.0794 1.86399 28.0938 3.11523 28.0938H25.8848C27.1361 28.0938 28.1504 27.0794 28.1504 25.8281V19.0313Z" stroke="white" stroke-miterlimit="10" stroke-linecap="round" stroke-linejoin="round"/>
<path d="M25.8848 0.906252H3.11523C1.86399 0.906252 0.849609 1.92057 0.849609 3.17188V19.0312H28.1504V3.17188C28.1504 1.92057 27.1361 0.906252 25.8848 0.906252Z" stroke="white" stroke-miterlimit="10" stroke-linecap="round" stroke-linejoin="round"/>
<path d="M8.83594 4.30469V15.6328L21.2969 9.96875L8.83594 4.30469Z" stroke="white" stroke-miterlimit="10" stroke-linecap="round" stroke-linejoin="round"/>
<path d="M4.30469 23.5625H24.6953" stroke="white" stroke-miterlimit="10" stroke-linecap="round" stroke-linejoin="round"/>
<path d="M18.4648 21.8633V25.2617" stroke="white" stroke-miterlimit="10" stroke-linecap="round" stroke-linejoin="round"/>
</g>
</svg>
