<svg width="33" height="33" viewBox="0 0 33 33" fill="none" xmlns="http://www.w3.org/2000/svg">
<circle cx="16.4151" cy="16.5" r="15.8406" stroke="#4883BB" stroke-width="1.14906"/>
<g clip-path="url(#clip0_24_1333)">
<path d="M16.2997 0.905762C12.1647 0.905762 8.19547 2.54975 5.27397 5.47319C2.34948 8.39782 0.706159 12.3641 0.705322 16.5001C0.705322 20.6343 2.35004 24.6035 5.27397 27.527C8.19547 30.4504 12.1647 32.0944 16.2997 32.0944C20.4346 32.0944 24.4038 30.4504 27.3253 27.527C30.2493 24.6035 31.894 20.6343 31.894 16.5001C31.894 12.3659 30.2493 8.39664 27.3253 5.47319C24.4038 2.54975 20.4346 0.905762 16.2997 0.905762Z" fill="#4680C2"/>
<path fill-rule="evenodd" clip-rule="evenodd" d="M25.5291 12.7633C25.6774 12.3327 25.5291 12.0196 24.8725 12.0196H22.6908C22.1401 12.0196 21.8859 12.2936 21.7376 12.5872C21.7376 12.5872 20.615 15.0925 19.0476 16.7171C18.5392 17.1868 18.3062 17.3434 18.0309 17.3434C17.8826 17.3434 17.692 17.1868 17.692 16.7562V12.7438C17.692 12.2349 17.5225 12 17.0565 12H13.6251C13.2862 12 13.0744 12.2349 13.0744 12.4697C13.0744 12.9591 13.8581 13.0765 13.9428 14.4466V17.4217C13.9428 18.0676 13.8157 18.1851 13.5404 18.1851C12.799 18.1851 10.9986 15.6601 9.91834 12.7829C9.70652 12.2153 9.49471 12 8.94399 12H6.74111C6.10566 12 5.99976 12.274 5.99976 12.5676C5.99976 13.0961 6.74111 15.758 9.45234 19.2811C11.2528 21.6886 13.8157 22.9804 16.1245 22.9804C17.5225 22.9804 17.692 22.6868 17.692 22.1975V20.3772C17.692 19.79 17.819 19.6922 18.2639 19.6922C18.5816 19.6922 19.1535 19.8488 20.4456 21.0036C21.9283 22.3737 22.1824 23 23.0085 23H25.1902C25.8257 23 26.1222 22.7064 25.9527 22.1388C25.7621 21.5712 25.0419 20.7491 24.11 19.7705C23.6016 19.2224 22.8391 18.6157 22.6061 18.3221C22.2883 17.9306 22.3731 17.774 22.6061 17.4217C22.5849 17.4217 25.2538 13.9377 25.5291 12.7633Z" fill="white"/>
</g>
<defs>
<clipPath id="clip0_24_1333">
<rect width="31.1887" height="31.1887" fill="white" transform="translate(0.705322 0.905762)"/>
</clipPath>
</defs>
</svg>
