<svg width="30" height="18" viewBox="0 0 30 18" fill="none" xmlns="http://www.w3.org/2000/svg">
<path fill-rule="evenodd" clip-rule="evenodd" d="M29.294 1.19863C29.5164 0.525854 29.294 0.0365618 28.3091 0.0365618H25.0366C24.2105 0.0365618 23.8292 0.464694 23.6068 0.923407C23.6068 0.923407 21.9229 4.83775 19.5717 7.37597C18.8092 8.10991 18.4597 8.35456 18.0467 8.35456C17.8242 8.35456 17.5383 8.10991 17.5383 7.43713V1.16805C17.5383 0.37295 17.2841 0.00598145 16.5851 0.00598145H11.438C10.9297 0.00598145 10.6119 0.37295 10.6119 0.73992C10.6119 1.50444 11.7875 1.68793 11.9146 3.82859V8.47688C11.9146 9.48605 11.724 9.66953 11.3109 9.66953C10.1989 9.66953 7.49826 5.7246 5.87787 1.22922C5.56015 0.342371 5.24243 0.00598145 4.41635 0.00598145H1.11203C0.158861 0.00598145 0 0.434112 0 0.892824C0 1.71851 1.11203 5.87751 5.17888 11.3821C7.87953 15.1435 11.724 17.1618 15.1872 17.1618C17.2841 17.1618 17.5383 16.7031 17.5383 15.9386V13.0946C17.5383 12.1772 17.7289 12.0243 18.3962 12.0243C18.8727 12.0243 19.7306 12.2689 21.6687 14.0732C23.8928 16.2138 24.274 17.1924 25.5131 17.1924H28.7857C29.7389 17.1924 30.1837 16.7337 29.9295 15.8469C29.6435 14.96 28.5633 13.6756 27.1653 12.1466C26.4028 11.2903 25.259 10.3423 24.9095 9.8836C24.4329 9.27198 24.56 9.02733 24.9095 8.47688C24.8777 8.47688 28.881 3.03348 29.294 1.19863Z" fill="#4782BA"/>
</svg>
